# xmcd
#
# Track frame offsets:
#   150
#   9323
#   24118
#   33501
#   42409
#   53066
#   63034
#   72518
#   83825
#   95635
#
# Disc length: 1423 seconds
#
# Revision: 0
# Processed by: cddbd v1.5.2PL0 Copyright (c) Steve Scherf et al.
# Submitted via: uFREEDB 1.6.0
#
DISCID=75058d0a
DTITLE=Reeves, Jim - The Country Side Of Jim reeves
DYEAR=1900
DGENRE=Country
TTITLE0=A Railroad Bum
TTITLE1=Blue Side Of Lonesome
TTITLE2=Waitin' For A Train
TTITLE3=I Won't Forget You
TTITLE4=My Lips Are Sealed
TTITLE5=Most Of The Time
TTITLE6=When Two Worlds Collide
TTITLE7=Yonder Comes A Sucker
TTITLE8=A Fallen Star
TTITLE9=Highway To Nowhere
EXTD=
EXTT0=
EXTT1=
EXTT2=
EXTT3=
EXTT4=
EXTT5=
EXTT6=
EXTT7=
EXTT8=
EXTT9=
PLAYORDER=
